<?xml version="1.0" encoding="utf-8"?>
<!-- Svg Vector Icons : http://www.onlinewebfonts.com/icon -->
<!DOCTYPE svg PUBLIC "-//W3C//DTD SVG 1.1//EN" "http://www.w3.org/Graphics/SVG/1.1/DTD/svg11.dtd">
<svg version="1.1" style="fill:#DEB4AF" xmlns="http://www.w3.org/2000/svg" xmlns:xlink="http://www.w3.org/1999/xlink" x="0px" y="0px" viewBox="0 0 1000 1000" enable-background="new 0 0 1000 1000" xml:space="preserve">
<metadata> Svg Vector Icons : http://www.onlinewebfonts.com/icon </metadata>
<g><path d="M778.9,848.5c55.5,0,105-17.1,147.1-50.8c42.5-34,64-81.3,64-140.5c0-71-23.7-123-70.5-154.4c-44.5-30-98.8-45.7-161.3-46.7c12-53.5,38.9-97.4,79.8-130.7c43.1-35,90.6-62.7,141.1-82.2l3.4-1.3v-90.4l-7,2.3c-49.6,16.5-99.9,37.9-149.5,63.5c-49.8,25.7-94.4,57.3-132.6,93.9c-38.2,36.6-69.9,78.7-94,125.4c-24.2,46.8-36.5,101.1-36.5,161.1c0,66.9,17.4,125.9,51.8,175.3C649.4,823.1,704.7,848.5,778.9,848.5z"/><path d="M61.8,773.1c34.8,50,90.1,75.4,164.3,75.4c55.5,0,105-17.1,147.1-50.8c42.5-34,64-81.3,64-140.5c0-71-23.7-123-70.5-154.4c-44.5-30-98.8-45.7-161.3-46.7c12-53.5,38.8-97.4,79.8-130.7c43.1-35,90.6-62.7,141.1-82.2l3.4-1.3v-90.4l-7,2.3c-49.6,16.5-99.9,37.9-149.5,63.5c-49.8,25.7-94.4,57.3-132.6,93.8c-38.2,36.6-69.9,78.7-94,125.4C22.3,483.4,10,537.7,10,597.7C10,664.6,27.4,723.6,61.8,773.1z"/></g>
</svg>